<svg data-v-0dd9719b="" version="1.0" xmlns="http://www.w3.org/2000/svg" xmlns:xlink="http://www.w3.org/1999/xlink" width="100%" height="100%" viewBox="0 0 340.000000 250.000000" preserveAspectRatio="xMidYMid meet" color-interpolation-filters="sRGB" style="margin: auto;"> <rect data-v-0dd9719b="" x="0" y="0" width="100%" height="100%" fill="#fff" fill-opacity="1" class="background"></rect> <rect data-v-0dd9719b="" x="0" y="0" width="100%" height="100%" fill="url(#watermark)" fill-opacity="1" class="watermarklayer"></rect> <g data-v-0dd9719b="" fill="#803033" class="icon-text-wrapper icon-svg-group iconsvg" transform="translate(63.095001220703125,98.17476654052734)"><g class="iconsvg-imagesvg" transform="translate(0,0)"><g><rect fill="#803033" fill-opacity="0" stroke-width="2" x="0" y="0" width="60" height="53.65046720615192" class="image-rect"></rect> <svg x="0" y="0" width="60" height="53.65046720615192" filtersec="colorsb5865604829" class="image-svg-svg primary" style="overflow: visible;"><svg xmlns="http://www.w3.org/2000/svg" viewBox="0 -9.5367431640625e-7 121.9000015258789 109"><g><g><g><path d="M6.2 59.5c-.2-1.1-.5-2.2-.7-3.4L0 30.3v11.1C1.3 47.7 2.7 53.9 4 60l1.5 7c2.6 12.1 5.1 24 7.7 36.5.3 1.9.7 3.7 1.1 5.5h2.3c-.4-1.8-.7-3.6-1.1-5.5-3.1-15.4-6.2-29.9-9.3-44zM5.5 87.7c-1.4-6.5-2.8-13-4.1-19.3C.9 66.3.5 64.2 0 62v10.9c1.9 8.7 3.7 17.2 5.5 25.9.3 1.6.7 3.2 1 4.7s.7 3.7 1.1 5.5H10l-1.2-5.5z" fill="#eb8b2e"></path><path d="M117 0H98.6c-.6 1.7-1.2 3.5-1.8 5.5s-1 3-1.5 4.7c-4.2 13.4-11.9 38-15.7 42.2-1.1-.8-3.8-2.9-10-9.4a13.9 13.9 0 0 0-9.8-4.1h-.1a13.2 13.2 0 0 0-9.7 4.2c-4.7 4.8-7.2 7-8.4 8-2.3-4.2-6.7-17.1-10-26.9-2.2-6.5-4.4-13.2-6.4-18.7L23 0H0s15.9 83.5 19.8 103.5c.4 1.9.7 3.7 1.1 5.5h18.8c.9-1.3 1.8-2.8 2.8-4.4l.6-1.1c4.8-7.5 12.1-18.9 16.8-18.9.1 0 3 .1 11.1 11.3 1.8 2.5 3.5 5.2 5.1 7.6l3.3 5.5h20.3l1.2-5.5c3.3-15.4 18.4-91.5 20.3-100.1l.7-3.4zm-12 56.8c-3.1 15.3-6.3 30.9-9.7 46.7H82.5c-5.6-9.3-15.7-24.4-22.6-24.4s-15.5 12-22.1 22.6l-1.1 1.8H25.4L6.3 5.5h13c2.2 5.8 4.7 13.2 7.1 20.5 9.2 27.2 11 31 14.3 31.3 1.7.1 3.8-.6 13.2-10.4a8.1 8.1 0 0 1 5.8-2.5h.1a7.9 7.9 0 0 1 5.8 2.5c10.9 11.2 12.8 11.2 14.1 11.2 5.4 0 10-11.5 20.9-46.3.7-2.2 1.3-4.3 2-6.3h12.5c-3.8 17.4-6.6 34.6-10.1 51.3z" fill="#803033"></path><path d="M114.8 64.1c-2.7 12.9-5.4 26.1-8.3 39.4-.3 1.9-.7 3.7-1.1 5.5h2.3l1.2-5.5c2.6-12.1 5.1-24.2 7.5-36l.6-2.9c1.6-7.8 3.2-15.7 4.9-23.7V29.7c-1.9 8.9-3.7 17.8-5.5 26.5-.6 2.6-1.1 5.3-1.6 7.9zM116.4 91.5c-.8 4-1.7 8-2.5 12l-1.2 5.5h2.4c.3-1.8.7-3.6 1.1-5.5.1-.2.1-.5.2-.8 1.9-8.9 3.7-17.8 5.5-26.5V64.9c-.4 2.1-.9 4.2-1.3 6.2zM59.9 91.7c-4 0-7.9 5.9-11.4 11.8-.5.8-.9 1.6-1.4 2.3s-1.3 2.3-1.9 3.2h2.7l1.2-2 2-3.5c2.9-4.6 6.3-9.6 8.8-9.6s5.2 4.6 8.4 9.6l3.3 5.5h2.5c-.8-1.4-1.8-3.4-3.1-5.5-3.4-5.5-7.9-11.8-11.1-11.8z" fill="#eb8b2e"></path><path d="M59.9 99.9c-1.7 0-3.3 1.6-4.8 3.6s-2 3.2-2.9 4.8l-.5.7h2.7a47.2 47.2 0 0 1 3.6-5.5 3.2 3.2 0 0 1 1.9-1.3 4.9 4.9 0 0 1 1.6 1.3 57.4 57.4 0 0 1 3.8 5.5h2.6a45 45 0 0 0-3.5-5.5c-1.5-2-3.1-3.6-4.5-3.6zM36.3 19.4c5.8 17.3 7.5 21.7 9.5 21.8s1.8.2 8.1-6.3a8.9 8.9 0 0 1 6.3-2.7h.1a9.1 9.1 0 0 1 6.4 2.7c6.8 7 8.1 7 8.8 7 3.5 0 7.3-10.2 14.9-34.6l.6-1.8L92.7 0h-2.4l-1.7 5.5a4.9 4.9 0 0 1-.4 1.1c-3.5 11.2-9.9 31.9-12.7 33-.4-.1-2-1-7.2-6.3a11 11 0 0 0-8-3.4h-.1a10.8 10.8 0 0 0-7.9 3.4c-4 4.1-5.6 5.2-6.2 5.5-1.5-1.8-5-12.3-7.6-20.1-1.6-4.6-3.1-9.2-4.6-13.2-.7-2.1-1.5-3.9-2.1-5.5h-2.5c.7 1.5 1.4 3.4 2.2 5.5 1.5 4.1 3.2 9.1 4.8 13.9z" fill="#eb8b2e"></path><path d="M42.2 13.5C47 27.7 48 30.1 49.6 30.2s1.9-.2 6.4-4.9a6.6 6.6 0 0 1 4.6-1.9 6.7 6.7 0 0 1 4.7 1.9c5.3 5.4 6.3 5.4 6.9 5.4 2.8 0 5.4-6.6 11.2-25.2a5 5 0 0 0 .4-1.3L85.2 0h-2.4a35.8 35.8 0 0 0-1.1 3.5 15.9 15.9 0 0 1-.7 2c-2.6 8.4-6.8 21.5-8.8 22.9-.4-.2-1.7-1.1-5.2-4.7a9 9 0 0 0-6.4-2.6 8.5 8.5 0 0 0-6.2 2.6 55.6 55.6 0 0 1-4.4 4.1c-1.2-1.8-3.8-9.4-5.7-15.1-.8-2.4-1.6-4.9-2.4-7.2S40.5 1.6 39.8 0h-2.4c.6 1.6 1.3 3.4 2 5.5s1.9 5.3 2.8 8z" fill="#eb8b2e"></path><path d="M47.4 8.2c3.5 10.5 4.3 12.1 5.6 12.2s1.5-.1 4.9-3.6a4.4 4.4 0 0 1 3.1-1.3 4.4 4.4 0 0 1 3.1 1.3c3.6 3.7 4.5 4 5.2 4 2 0 3.8-3.9 7.4-15.3.4-1.2.8-2.6 1.3-4s.3-1 .5-1.5h-2.4l-.3.8c-.4 1.4-.9 3-1.5 4.7-1.7 5.4-3.8 11.6-5.1 12.9a27.8 27.8 0 0 1-3.4-3.2 6.7 6.7 0 0 0-4.8-2 6.7 6.7 0 0 0-4.8 2 27.1 27.1 0 0 1-2.8 2.7 94.3 94.3 0 0 1-3.8-10.5 14.6 14.6 0 0 1-.7-1.9C48.2 3.6 47.6 1.7 47 0h-2.5l2 5.5z" fill="#eb8b2e"></path><path d="M52.8 5.5c1.7 4.8 2.2 5.5 3.2 5.6s1.3-.3 3.5-2.5a2.5 2.5 0 0 1 1.8-.8 2.5 2.5 0 0 1 1.8.8c2.5 2.5 3.1 2.7 3.7 2.7 1.2 0 2.1-1.2 3.8-5.8L72.4 0H70c-.6 1.8-1.2 3.8-1.9 5.5a16 16 0 0 1-1.4 3.3l-2-1.8a4.6 4.6 0 0 0-3.4-1.5A4.9 4.9 0 0 0 57.8 7a17.8 17.8 0 0 1-1.4 1.4c-.3-.7-.7-1.7-1.1-2.9s-.9-2.4-1.3-3.6L53.4 0H51l.9 2.7c.3 1 .6 2 .9 2.8z" fill="#eb8b2e"></path></g></g></g></svg></svg> <!----></g></g> <g transform="translate(67,2.9652347564697266)"><g data-gra="path-name" fill-rule="" class="tp-name iconsvg-namesvg"><g transform="scale(1)"><g><path d="M27.48-41.89L35.83-41.69Q36.09-38.2 36.3-34.37L36.3-34.37Q36.39-32.72 36.47-30.85 36.56-28.97 36.62-26.94 36.68-24.9 36.72-22.78 36.77-20.65 36.77-18.54L36.77-18.54Q36.77-14.41 36.24-10.69 35.71-6.97 34.51-4.13 33.31-1.29 31.35 0.38 29.38 2.05 26.51 2.05L26.51 2.05Q26.46 2.05 26 2.02 25.55 1.99 24.84 1.82 24.14 1.64 23.28 1.26 22.41 0.88 21.53 0.18 20.65-0.53 19.86-1.63 19.07-2.72 18.54-4.31L18.54-4.31Q17.93-2.81 17.08-1.82 16.23-0.82 15.32-0.16 14.41 0.5 13.49 0.85 12.57 1.2 11.84 1.35 11.1 1.49 10.61 1.52 10.11 1.55 10.02 1.55L10.02 1.55Q8.26 1.55 7.02 0.75 5.77-0.06 4.91-1.48 4.04-2.9 3.54-4.82 3.05-6.74 2.77-8.98 2.49-11.22 2.42-13.68 2.34-16.14 2.34-18.6L2.34-18.6Q2.34-20.83 2.37-23.04 2.4-25.25 2.45-27.33 2.49-29.41 2.56-31.33 2.64-33.25 2.7-34.89L2.7-34.89Q2.84-38.76 3.05-42.19L3.05-42.19 11.63-41.95Q11.07-38.55 10.63-34.8L10.63-34.8Q10.46-33.19 10.28-31.35 10.11-29.5 9.98-27.5 9.84-25.49 9.76-23.36 9.67-21.24 9.67-19.13L9.67-19.13Q9.67-17.52 9.68-15.88 9.7-14.24 9.77-12.7 9.84-11.16 9.99-9.83 10.14-8.5 10.42-7.49 10.69-6.47 11.12-5.9 11.54-5.33 12.19-5.33L12.19-5.33Q12.8-5.33 13.34-6.09 13.89-6.86 14.31-8.1 14.74-9.35 15.07-10.91 15.41-12.48 15.63-14.08 15.85-15.67 15.97-17.17 16.08-18.66 16.08-19.75L16.08-19.75Q16.08-20.1 16.11-20.65L16.11-20.65Q16.11-21.15 16.13-21.93 16.14-22.71 16.14-23.82L16.14-23.82Q16.14-26.04 16.08-29.84 16.03-33.63 15.91-39.35L15.91-39.35 23.35-39.05Q23.09-34.34 22.91-31.03 22.73-27.71 22.62-25.5 22.5-23.29 22.46-21.96 22.41-20.63 22.4-19.85 22.38-19.07 22.38-18.68 22.38-18.28 22.38-17.93L22.38-17.93Q22.38-16.67 22.49-15.22 22.59-13.77 22.81-12.33 23.03-10.9 23.36-9.57 23.7-8.23 24.13-7.22 24.55-6.21 25.09-5.6 25.63-4.98 26.28-4.98L26.28-4.98Q27.28-4.98 27.88-6.09 28.48-7.21 28.78-9.13 29.09-11.04 29.18-13.58 29.27-16.11 29.27-18.96L29.27-18.96Q29.27-23.38 29.08-27.13 28.89-30.88 28.59-33.79 28.3-36.71 27.99-38.77 27.69-40.84 27.48-41.89L27.48-41.89ZM61.96-6.3L61.96-6.3Q61.96-4.57 61.17-3.05 60.38-1.52 59.03-0.41 57.69 0.7 55.87 1.35 54.05 1.99 52 1.99L52 1.99Q50.63 1.99 49.22 1.61 47.81 1.23 46.52 0.35 45.23-0.53 44.09-1.96 42.95-3.4 42.11-5.48 41.28-7.56 40.8-10.36 40.31-13.15 40.31-16.79L40.31-16.79Q40.31-20.21 40.8-22.85 41.28-25.49 42.11-27.45 42.95-29.41 44.06-30.75 45.18-32.08 46.45-32.92 47.72-33.75 49.09-34.1 50.45-34.45 51.77-34.45L51.77-34.45Q53.73-34.45 55.49-33.82 57.25-33.19 58.56-31.96 59.88-30.73 60.66-28.93 61.44-27.13 61.44-24.79L61.44-24.79Q61.44-22.68 60.57-20.52 59.71-18.37 58.01-16.45 56.31-14.53 53.8-12.96 51.3-11.4 48.05-10.49L48.05-10.49Q48.22-8.67 48.56-7.18 48.9-5.68 49.41-4.63 49.92-3.57 50.61-2.99 51.3-2.4 52.21-2.4L52.21-2.4Q52.79-2.43 53.32-2.61L53.32-2.61Q53.79-2.75 54.27-3.08 54.76-3.4 55.08-4.01L55.08-4.01Q54.32-4.37 53.91-4.92 53.5-5.48 53.29-5.98L53.29-5.98Q53.06-6.56 53.03-7.21L53.03-7.21Q53.03-8.61 53.58-9.49 54.14-10.37 54.9-10.87 55.66-11.37 56.46-11.56 57.25-11.75 57.71-11.75L57.71-11.75Q58.21-11.75 58.93-11.54 59.65-11.34 60.32-10.75 61-10.17 61.48-9.1 61.96-8.03 61.96-6.3ZM54.73-24.73L54.73-24.73Q54.73-25.78 54.54-26.73 54.35-27.69 53.98-28.39 53.61-29.09 53.07-29.52 52.53-29.94 51.83-29.94L51.83-29.94Q50.63-29.94 49.86-28.84 49.1-27.74 48.63-25.93 48.16-24.11 47.99-21.74 47.81-19.37 47.81-16.79L47.81-16.79 47.81-14.65Q49.31-15.44 50.58-16.52 51.86-17.61 52.78-18.91 53.7-20.21 54.21-21.68 54.73-23.14 54.73-24.73ZM73.3-41.1L73.3-41.1Q73.3-40.17 72.95-39.33 72.6-38.5 71.98-37.88 71.37-37.27 70.53-36.9 69.7-36.53 68.76-36.53L68.76-36.53Q67.82-36.53 66.99-36.9 66.15-37.27 65.54-37.88 64.92-38.5 64.56-39.33 64.19-40.17 64.19-41.1L64.19-41.1Q64.19-42.04 64.56-42.88 64.92-43.71 65.54-44.33 66.15-44.94 66.99-45.31 67.82-45.67 68.76-45.67L68.76-45.67Q69.7-45.67 70.53-45.31 71.37-44.94 71.98-44.33 72.6-43.71 72.95-42.88 73.3-42.04 73.3-41.1ZM64.66-32.11L73.3-32.23Q73.07-29.91 72.91-27.23 72.74-24.55 72.64-21.74 72.54-18.93 72.48-16.08 72.42-13.24 72.39-10.66 72.36-8.09 72.35-5.84 72.33-3.6 72.33-1.99L72.33-1.99 72.33 1.32 65.68 1.55Q65.74-0.47 65.74-2.37 65.74-4.28 65.74-6.18L65.74-6.18Q65.74-9.49 65.68-12.64 65.63-15.79 65.49-18.96 65.36-22.12 65.16-25.37 64.95-28.62 64.66-32.11L64.66-32.11ZM91.26-44.09L99.73-43.97Q99.05-35.42 98.7-27 98.35-18.57 98.35-10.02L98.35-10.02Q98.35-4.31 98.53 1.44L98.53 1.44 91.85 1.55 92.05-4.25Q90.88-2.05 89.65-0.88 88.42 0.29 87.39 0.88L87.39 0.88Q86.19 1.55 85.02 1.67L85.02 1.67Q83.53 1.67 82 0.82 80.48-0.03 79.25-2.11 78.02-4.19 77.23-7.66 76.44-11.13 76.44-16.38L76.44-16.38Q76.44-19.83 76.85-22.49 77.26-25.14 77.96-27.1 78.66-29.06 79.61-30.4 80.57-31.73 81.67-32.55 82.76-33.37 83.96-33.72 85.17-34.07 86.34-34.07L86.34-34.07Q87.13-34.01 88.04-33.69L88.04-33.69Q88.8-33.4 89.78-32.83 90.76-32.26 91.79-31.14L91.79-31.14Q91.61-37.65 91.26-44.09L91.26-44.09ZM92.17-11.69L92.17-14.03Q92.17-19.69 91.99-25.37L91.99-25.37Q91.67-25.84 91.3-26.34 90.94-26.84 90.5-27.26 90.06-27.69 89.56-27.95 89.06-28.21 88.51-28.21L88.51-28.21Q87.69-28.21 86.85-27.64 86.02-27.07 85.34-25.68 84.67-24.29 84.24-21.97 83.82-19.66 83.82-16.14L83.82-16.14Q83.82-12.89 84.11-10.75 84.4-8.61 84.9-7.34 85.4-6.06 86.04-5.55 86.69-5.04 87.42-5.04L87.42-5.04Q88.54-5.04 89.34-5.79 90.15-6.53 90.69-7.59 91.23-8.64 91.58-9.77 91.93-10.9 92.17-11.69L92.17-11.69ZM123.6 0.79L116.84 1.2Q116.66 0.29 116.51-0.64 116.37-1.58 116.28-2.58L116.28-2.58Q114.93-0.59 113.06 0.48 111.18 1.55 108.96 1.55L108.96 1.55Q107.81 1.55 106.61 1.19 105.41 0.82 104.43-0.09 103.45-1 102.82-2.56 102.19-4.13 102.19-6.53L102.19-6.53Q102.19-8.53 102.77-10 103.36-11.48 104.3-12.6 105.23-13.71 106.41-14.53 107.58-15.35 108.74-16 109.89-16.64 110.95-17.2 112-17.75 112.68-18.31L112.68-18.31Q113.96-19.34 114.92-20.49 115.87-21.65 116.46-22.91L116.46-22.91Q116.34-24.93 116.03-26.24 115.72-27.54 115.22-28.32 114.73-29.09 114.01-29.4 113.29-29.71 112.38-29.71L112.38-29.71Q111.04-29.71 110.11-29.12 109.19-28.54 108.6-27.71L108.6-27.71Q109.34-27.25 109.73-26.72 110.13-26.19 110.33-25.69L110.33-25.69Q110.57-25.14 110.6-24.55L110.6-24.55Q110.6-22.56 109.47-21.5 108.34-20.45 106.58-20.45L106.58-20.45Q105.67-20.45 104.91-20.87 104.15-21.3 103.58-22.06 103.01-22.82 102.69-23.88 102.36-24.93 102.36-26.16L102.36-26.16Q102.36-27.39 102.92-28.77 103.48-30.15 104.71-31.33 105.94-32.52 107.87-33.3 109.8-34.07 112.56-34.07L112.56-34.07Q115.31-34.07 117.28-33 119.24-31.93 120.5-30.16 121.76-28.39 122.33-26.07 122.9-23.76 122.9-21.3L122.9-21.3Q122.9-19.45 122.87-17.29 122.84-15.12 122.84-12.83L122.84-12.83Q122.84-10.93 122.87-9.02 122.9-7.12 122.99-5.35 123.08-3.57 123.22-2.01 123.37-0.44 123.6 0.79L123.6 0.79ZM116.16-9.73L116.4-15.97Q115.37-14.74 114.2-13.86L114.2-13.86Q113.32-13.24 112.31-12.48 111.3-11.72 110.43-10.87 109.57-10.02 109-9.1 108.43-8.17 108.43-7.21L108.43-7.21Q108.43-5.89 109.07-4.95 109.72-4.01 110.89-4.01L110.89-4.01Q111.97-4.01 112.82-4.6 113.67-5.19 114.33-6.05 114.99-6.91 115.44-7.91 115.9-8.91 116.16-9.73L116.16-9.73ZM137.52 1.67L137.52 1.67Q134.62 1.67 132.52 0.41 130.43-0.85 129.07-3.11 127.71-5.36 127.06-8.47 126.42-11.57 126.42-15.23L126.42-15.23Q126.42-19.48 127.18-23.03 127.94-26.57 129.42-29.12 130.9-31.67 133.08-33.09 135.26-34.51 138.11-34.51L138.11-34.51Q140.98-34.51 143.06-33.31 145.14-32.11 146.5-29.94 147.86-27.77 148.51-24.76 149.15-21.74 149.15-18.11L149.15-18.11Q149.15-16.23 148.93-14.03 148.71-11.84 148.2-9.64 147.69-7.44 146.84-5.41 145.99-3.37 144.7-1.79 143.41-0.21 141.64 0.73 139.86 1.67 137.52 1.67ZM142.09-20.27L142.09-20.27Q142.09-22.5 141.88-24.27 141.68-26.04 141.23-27.28 140.77-28.51 140.08-29.17 139.39-29.82 138.43-29.82L138.43-29.82Q137.37-29.82 136.46-28.71 135.56-27.6 134.87-25.49 134.18-23.38 133.78-20.35 133.39-17.31 133.39-13.51L133.39-13.51Q133.39-11.04 133.62-9.1 133.86-7.15 134.33-5.79 134.79-4.42 135.48-3.71 136.17-2.99 137.11-2.99L137.11-2.99Q138.05-2.99 138.78-3.76 139.51-4.54 140.05-5.86 140.6-7.18 140.99-8.92 141.39-10.66 141.62-12.58 141.86-14.5 141.97-16.49 142.09-18.49 142.09-20.27Z" transform="translate(-2.3399999141693115, 45.66999816894531)"></path></g> <!----> <!----> <!----> <!----> <!----> <!----> <!----></g></g> <!----></g></g><defs v-gra="od"></defs></svg>